<mxfile host="app.diagrams.net" agent="Mozilla/5.0 (X11; Linux x86_64; rv:140.0) Gecko/20100101 Firefox/140.0" version="27.2.0">
  <diagram name="Page-1" id="6imxyzcD-j2hKoNXSwVW">
    <mxGraphModel dx="2223" dy="1927" grid="1" gridSize="10" guides="1" tooltips="1" connect="1" arrows="1" fold="1" page="1" pageScale="1" pageWidth="850" pageHeight="1100" background="none" math="0" shadow="0" adaptiveColors="auto">
      <root>
        <mxCell id="0" />
        <mxCell id="1" parent="0" />
        <mxCell id="yIXjyFsZfD1kwc9D13FT-1" value="Text" style="text;html=1;align=center;verticalAlign=middle;resizable=0;points=[];autosize=1;strokeColor=none;fillColor=none;" parent="1" vertex="1">
          <mxGeometry x="-125" y="-12" width="50" height="30" as="geometry" />
        </mxCell>
        <mxCell id="PNi_5DgzUlCbR8dgIt0b-1" value="&lt;font style=&quot;font-size: 15px;&quot;&gt;Internet&lt;/font&gt;" style="ellipse;shape=cloud;whiteSpace=wrap;html=1;fillColor=#b1ddf0;strokeColor=#10739e;strokeWidth=2;" vertex="1" parent="1">
          <mxGeometry x="-840" y="-800" width="120" height="80" as="geometry" />
        </mxCell>
        <mxCell id="PNi_5DgzUlCbR8dgIt0b-4" value="ISP Router" style="rounded=1;whiteSpace=wrap;html=1;fillColor=#fad7ac;strokeColor=#b46504;strokeWidth=3;" vertex="1" parent="1">
          <mxGeometry x="-280" y="-790" width="120" height="60" as="geometry" />
        </mxCell>
        <mxCell id="PNi_5DgzUlCbR8dgIt0b-5" value="&lt;font style=&quot;font-size: 17px;&quot;&gt;CGNAT&lt;/font&gt;" style="rounded=0;whiteSpace=wrap;html=1;fillColor=#fad9d5;strokeColor=#ae4132;strokeWidth=3;" vertex="1" parent="1">
          <mxGeometry x="-560" y="-835" width="80" height="150" as="geometry" />
        </mxCell>
        <mxCell id="PNi_5DgzUlCbR8dgIt0b-6" value="" style="endArrow=none;html=1;rounded=0;entryX=0;entryY=0.5;entryDx=0;entryDy=0;exitX=1;exitY=0.5;exitDx=0;exitDy=0;" edge="1" parent="1" source="PNi_5DgzUlCbR8dgIt0b-5" target="PNi_5DgzUlCbR8dgIt0b-4">
          <mxGeometry width="50" height="50" relative="1" as="geometry">
            <mxPoint x="-450" y="-450" as="sourcePoint" />
            <mxPoint x="-400" y="-500" as="targetPoint" />
          </mxGeometry>
        </mxCell>
        <mxCell id="PNi_5DgzUlCbR8dgIt0b-7" value="" style="endArrow=none;html=1;rounded=0;entryX=0;entryY=0.5;entryDx=0;entryDy=0;exitX=0.875;exitY=0.5;exitDx=0;exitDy=0;exitPerimeter=0;" edge="1" parent="1" source="PNi_5DgzUlCbR8dgIt0b-1" target="PNi_5DgzUlCbR8dgIt0b-5">
          <mxGeometry width="50" height="50" relative="1" as="geometry">
            <mxPoint x="-450" y="-450" as="sourcePoint" />
            <mxPoint x="-400" y="-500" as="targetPoint" />
          </mxGeometry>
        </mxCell>
        <mxCell id="PNi_5DgzUlCbR8dgIt0b-8" value="&lt;div&gt;&lt;font style=&quot;font-size: 14px;&quot;&gt;WAN&lt;/font&gt;&lt;/div&gt;&lt;div&gt;&lt;font style=&quot;font-size: 14px;&quot;&gt;192.168.254.251&lt;/font&gt;&lt;/div&gt;" style="text;html=1;align=center;verticalAlign=middle;whiteSpace=wrap;rounded=0;" vertex="1" parent="1">
          <mxGeometry x="-390" y="-790" width="110" height="30" as="geometry" />
        </mxCell>
        <mxCell id="PNi_5DgzUlCbR8dgIt0b-10" value="&lt;div&gt;&lt;font style=&quot;font-size: 15px;&quot;&gt;LAN network&lt;/font&gt;&lt;/div&gt;&lt;div&gt;&lt;font style=&quot;font-size: 15px;&quot;&gt;10.0.0.0/24&lt;/font&gt;&lt;/div&gt;" style="text;html=1;align=center;verticalAlign=middle;whiteSpace=wrap;rounded=0;" vertex="1" parent="1">
          <mxGeometry x="-210" y="-720" width="90" height="30" as="geometry" />
        </mxCell>
      </root>
    </mxGraphModel>
  </diagram>
</mxfile>
